# xmcd
#
# Track frame offsets: 
#        150
#        42030
#        63942
#        104730
#        137242
#        175755
#        200005
#        232667
#        262042
#
# Disc length: 4108 seconds
#
# Revision: 8
# Processed by: cddbd v1.5.2PL0 Copyright (c) Steve Scherf et al.
# Submitted via: ExactAudioCopy v0.95a5
#
DISCID=7c100a09
DTITLE=Steve Khan - Public Access
DYEAR=1989
DGENRE=Fusion
TTITLE0=Sise
TTITLE1=Blue Zone 41
TTITLE2=Kamarica
TTITLE3=Silent Screen
TTITLE4=Mambosa
TTITLE5=Butane Elvin
TTITLE6=Botero People
TTITLE7=Dedicated to You
TTITLE8=Mama Chola
EXTD=corrected
EXTT0=
EXTT1=
EXTT2=
EXTT3=
EXTT4=
EXTT5=
EXTT6=
EXTT7=
EXTT8=
PLAYORDER=
